<mxfile host="app.diagrams.net" modified="2022-05-06T09:10:31.993Z" agent="5.0 (X11)" etag="5D34fJJs1hj2TZvnjkCS" version="18.0.1" type="github">
  <diagram id="MoSiAzPxSyauPg4qjcsP" name="Page-1">
    <mxGraphModel dx="1422" dy="716" grid="1" gridSize="10" guides="1" tooltips="1" connect="1" arrows="1" fold="1" page="1" pageScale="1" pageWidth="827" pageHeight="1169" math="0" shadow="0">
      <root>
        <mxCell id="0" />
        <mxCell id="1" parent="0" />
        <mxCell id="QJm1VOwRxr5E5zSXs-Bi-1" value="" style="ellipse;shape=cloud;whiteSpace=wrap;html=1;" vertex="1" parent="1">
          <mxGeometry x="350" y="330" width="120" height="80" as="geometry" />
        </mxCell>
        <mxCell id="QJm1VOwRxr5E5zSXs-Bi-4" style="edgeStyle=orthogonalEdgeStyle;rounded=0;orthogonalLoop=1;jettySize=auto;html=1;" edge="1" parent="1" source="QJm1VOwRxr5E5zSXs-Bi-2" target="QJm1VOwRxr5E5zSXs-Bi-1">
          <mxGeometry relative="1" as="geometry" />
        </mxCell>
        <mxCell id="QJm1VOwRxr5E5zSXs-Bi-2" value="" style="shape=callout;whiteSpace=wrap;html=1;perimeter=calloutPerimeter;" vertex="1" parent="1">
          <mxGeometry x="350" y="170" width="120" height="80" as="geometry" />
        </mxCell>
        <mxCell id="QJm1VOwRxr5E5zSXs-Bi-3" value="" style="endArrow=classic;startArrow=classic;html=1;rounded=0;" edge="1" parent="1">
          <mxGeometry width="50" height="50" relative="1" as="geometry">
            <mxPoint x="390" y="390" as="sourcePoint" />
            <mxPoint x="440" y="340" as="targetPoint" />
          </mxGeometry>
        </mxCell>
      </root>
    </mxGraphModel>
  </diagram>
</mxfile>
